<?xml version="1.0" encoding="UTF-8" standalone="no"?>
<!-- Created with Inkscape (http://www.inkscape.org/) -->

<svg
   xmlns:dc="http://purl.org/dc/elements/1.1/"
   xmlns:cc="http://creativecommons.org/ns#"
   xmlns:rdf="http://www.w3.org/1999/02/22-rdf-syntax-ns#"
   xmlns:svg="http://www.w3.org/2000/svg"
   xmlns="http://www.w3.org/2000/svg"
   xmlns:sodipodi="http://sodipodi.sourceforge.net/DTD/sodipodi-0.dtd"
   xmlns:inkscape="http://www.inkscape.org/namespaces/inkscape"
   width="89.999985mm"
   height="147mm"
   viewBox="0 0 89.999985 147"
   version="1.1"
   id="svg4699"
   inkscape:version="0.92.1 r15371"
   sodipodi:docname="keyboard_clear.svg">
  <defs
     id="defs4693">
    <filter
       inkscape:collect="always"
       style="color-interpolation-filters:sRGB"
       id="filter5758"
       x="-0.2808"
       width="1.5616"
       y="-0.2808"
       height="1.5616">
      <feGaussianBlur
         inkscape:collect="always"
         stdDeviation="0.35378573"
         id="feGaussianBlur5760" />
    </filter>
  </defs>
  <sodipodi:namedview
     id="base"
     pagecolor="#ffffff"
     bordercolor="#666666"
     borderopacity="1.0"
     inkscape:pageopacity="0"
     inkscape:pageshadow="2"
     inkscape:zoom="1.979899"
     inkscape:cx="83.920594"
     inkscape:cy="154.92526"
     inkscape:document-units="mm"
     inkscape:current-layer="layer1"
     showgrid="false"
     fit-margin-top="0"
     fit-margin-left="0"
     fit-margin-right="0"
     fit-margin-bottom="0"
     inkscape:window-width="1295"
     inkscape:window-height="645"
     inkscape:window-x="2800"
     inkscape:window-y="739"
     inkscape:window-maximized="0" />
  <g
     inkscape:label="Vrstva 1"
     inkscape:groupmode="layer"
     id="layer1"
     transform="translate(-3.6951851,1.8173344)">
    <rect
       style="fill:#282223;fill-opacity:1;stroke:#160000;stroke-width:2.94835305;stroke-linecap:round;stroke-linejoin:round;stroke-miterlimit:4;stroke-dasharray:none;stroke-opacity:1;paint-order:stroke markers fill"
       id="case"
       width="87.051628"
       height="144.05165"
       x="5.1693616"
       y="-0.34315789"
       ry="9.9541569" />
    <g
       id="g5428"
       style="fill:#e5e53c;fill-opacity:1">
      <rect
         y="26.643112"
         x="13.066567"
         height="11.533456"
         width="14.740882"
         id="btn_00"
         style="fill:#e5e53c;fill-opacity:1;stroke:#160000;stroke-width:0.26458332;stroke-linecap:round;stroke-linejoin:round;stroke-miterlimit:4;stroke-dasharray:none;stroke-opacity:1;paint-order:stroke markers fill"
         ry="1" />
      <rect
         y="46.420689"
         x="13.081843"
         height="14.734543"
         width="14.734543"
         id="btn_01"
         style="fill:#e5e53c;fill-opacity:1;stroke:#160000;stroke-width:0.26458332;stroke-linecap:round;stroke-linejoin:round;stroke-miterlimit:4;stroke-dasharray:none;stroke-opacity:1;paint-order:stroke markers fill"
         ry="1" />
      <rect
         y="64.998878"
         x="13.081843"
         height="14.734543"
         width="14.734543"
         id="btn_02"
         style="fill:#e5e53c;fill-opacity:1;stroke:#160000;stroke-width:0.26458332;stroke-linecap:round;stroke-linejoin:round;stroke-miterlimit:4;stroke-dasharray:none;stroke-opacity:1;paint-order:stroke markers fill"
         ry="1" />
      <rect
         y="83.57708"
         x="13.081843"
         height="14.734543"
         width="14.734543"
         id="btn_03"
         style="fill:#e5e53c;fill-opacity:1;stroke:#160000;stroke-width:0.26458332;stroke-linecap:round;stroke-linejoin:round;stroke-miterlimit:4;stroke-dasharray:none;stroke-opacity:1;paint-order:stroke markers fill"
         ry="1" />
      <rect
         y="102.15527"
         x="13.081843"
         height="14.734543"
         width="14.734543"
         id="btn_04"
         style="fill:#e5e53c;fill-opacity:1;stroke:#160000;stroke-width:0.26458332;stroke-linecap:round;stroke-linejoin:round;stroke-miterlimit:4;stroke-dasharray:none;stroke-opacity:1;paint-order:stroke markers fill"
         ry="1" />
      <rect
         y="120.73347"
         x="13.081843"
         height="14.734543"
         width="14.734543"
         id="btn_05"
         style="fill:#e5e53c;fill-opacity:1;stroke:#160000;stroke-width:0.26458332;stroke-linecap:round;stroke-linejoin:round;stroke-miterlimit:4;stroke-dasharray:none;stroke-opacity:1;paint-order:stroke markers fill"
         ry="1" />
      <rect
         y="26.845154"
         x="31.83296"
         height="11.533456"
         width="14.740882"
         id="btn_10"
         style="fill:#e5e53c;fill-opacity:1;stroke:#160000;stroke-width:0.26458332;stroke-linecap:round;stroke-linejoin:round;stroke-miterlimit:4;stroke-dasharray:none;stroke-opacity:1;paint-order:stroke markers fill"
         ry="1" />
      <rect
         y="46.678806"
         x="31.840164"
         height="14.734543"
         width="14.734543"
         id="btn_11"
         style="fill:#e5e53c;fill-opacity:1;stroke:#160000;stroke-width:0.26458332;stroke-linecap:round;stroke-linejoin:round;stroke-miterlimit:4;stroke-dasharray:none;stroke-opacity:1;paint-order:stroke markers fill"
         ry="1" />
      <rect
         y="65.256996"
         x="31.840164"
         height="14.734543"
         width="14.734543"
         id="btn_12"
         style="fill:#e5e53c;fill-opacity:1;stroke:#160000;stroke-width:0.26458332;stroke-linecap:round;stroke-linejoin:round;stroke-miterlimit:4;stroke-dasharray:none;stroke-opacity:1;paint-order:stroke markers fill"
         ry="1" />
      <rect
         y="83.835197"
         x="31.840164"
         height="14.734543"
         width="14.734543"
         id="btn_13"
         style="fill:#e5e53c;fill-opacity:1;stroke:#160000;stroke-width:0.26458332;stroke-linecap:round;stroke-linejoin:round;stroke-miterlimit:4;stroke-dasharray:none;stroke-opacity:1;paint-order:stroke markers fill"
         ry="1" />
      <rect
         y="102.41339"
         x="31.840164"
         height="14.734543"
         width="14.734543"
         id="btn_14"
         style="fill:#e5e53c;fill-opacity:1;stroke:#160000;stroke-width:0.26458332;stroke-linecap:round;stroke-linejoin:round;stroke-miterlimit:4;stroke-dasharray:none;stroke-opacity:1;paint-order:stroke markers fill"
         ry="1" />
      <rect
         y="120.99158"
         x="31.840164"
         height="14.734543"
         width="14.734543"
         id="btn_15"
         style="fill:#e5e53c;fill-opacity:1;stroke:#160000;stroke-width:0.26458332;stroke-linecap:round;stroke-linejoin:round;stroke-miterlimit:4;stroke-dasharray:none;stroke-opacity:1;paint-order:stroke markers fill"
         ry="1" />
      <rect
         y="26.845158"
         x="50.599354"
         height="11.533456"
         width="14.740882"
         id="btn_20"
         style="fill:#e5e53c;fill-opacity:1;stroke:#160000;stroke-width:0.26458332;stroke-linecap:round;stroke-linejoin:round;stroke-miterlimit:4;stroke-dasharray:none;stroke-opacity:1;paint-order:stroke markers fill"
         ry="1" />
      <rect
         y="46.67881"
         x="50.598488"
         height="14.734543"
         width="14.734543"
         id="btn_21"
         style="fill:#e5e53c;fill-opacity:1;stroke:#160000;stroke-width:0.26458332;stroke-linecap:round;stroke-linejoin:round;stroke-miterlimit:4;stroke-dasharray:none;stroke-opacity:1;paint-order:stroke markers fill"
         ry="1" />
      <rect
         y="65.257004"
         x="50.598488"
         height="14.734543"
         width="14.734543"
         id="btn_22"
         style="fill:#e5e53c;fill-opacity:1;stroke:#160000;stroke-width:0.26458332;stroke-linecap:round;stroke-linejoin:round;stroke-miterlimit:4;stroke-dasharray:none;stroke-opacity:1;paint-order:stroke markers fill"
         ry="1" />
      <rect
         y="83.835197"
         x="50.598488"
         height="14.734543"
         width="14.734543"
         id="btn_23"
         style="fill:#e5e53c;fill-opacity:1;stroke:#160000;stroke-width:0.26458332;stroke-linecap:round;stroke-linejoin:round;stroke-miterlimit:4;stroke-dasharray:none;stroke-opacity:1;paint-order:stroke markers fill"
         ry="1" />
      <rect
         y="102.41339"
         x="50.598488"
         height="14.734543"
         width="14.734543"
         id="btn_24"
         style="fill:#e5e53c;fill-opacity:1;stroke:#160000;stroke-width:0.26458332;stroke-linecap:round;stroke-linejoin:round;stroke-miterlimit:4;stroke-dasharray:none;stroke-opacity:1;paint-order:stroke markers fill"
         ry="1" />
      <rect
         y="120.99158"
         x="50.598488"
         height="14.734543"
         width="14.734543"
         id="btn_25"
         style="fill:#e5e53c;fill-opacity:1;stroke:#160000;stroke-width:0.26458332;stroke-linecap:round;stroke-linejoin:round;stroke-miterlimit:4;stroke-dasharray:none;stroke-opacity:1;paint-order:stroke markers fill"
         ry="1" />
      <rect
         y="26.613522"
         x="69.365746"
         height="11.533456"
         width="14.740882"
         id="btn_30"
         style="fill:#e5e53c;fill-opacity:1;stroke:#160000;stroke-width:0.26458332;stroke-linecap:round;stroke-linejoin:round;stroke-miterlimit:4;stroke-dasharray:none;stroke-opacity:1;paint-order:stroke markers fill"
         ry="1" />
      <rect
         y="46.382885"
         x="69.356812"
         height="14.734543"
         width="14.734543"
         id="btn_31"
         style="fill:#e5e53c;fill-opacity:1;stroke:#160000;stroke-width:0.26458332;stroke-linecap:round;stroke-linejoin:round;stroke-miterlimit:4;stroke-dasharray:none;stroke-opacity:1;paint-order:stroke markers fill"
         ry="1" />
      <rect
         y="64.961075"
         x="69.356812"
         height="14.734543"
         width="14.734543"
         id="btn_32"
         style="fill:#e5e53c;fill-opacity:1;stroke:#160000;stroke-width:0.26458332;stroke-linecap:round;stroke-linejoin:round;stroke-miterlimit:4;stroke-dasharray:none;stroke-opacity:1;paint-order:stroke markers fill"
         ry="1" />
      <rect
         y="83.539276"
         x="69.356812"
         height="14.734543"
         width="14.734543"
         id="btn_33"
         style="fill:#e5e53c;fill-opacity:1;stroke:#160000;stroke-width:0.26458332;stroke-linecap:round;stroke-linejoin:round;stroke-miterlimit:4;stroke-dasharray:none;stroke-opacity:1;paint-order:stroke markers fill"
         ry="1" />
      <rect
         y="102.41689"
         x="69.383728"
         height="33.309235"
         width="14.680716"
         id="btn_34"
         style="fill:#e5e53c;fill-opacity:1;stroke:#160000;stroke-width:0.26574314;stroke-linecap:round;stroke-linejoin:round;stroke-miterlimit:4;stroke-dasharray:none;stroke-opacity:1;paint-order:stroke markers fill"
         ry="1.0087864" />
      <circle
         style="fill:#21d200;fill-opacity:1;stroke:#160000;stroke-width:0.26458332;stroke-linecap:round;stroke-linejoin:round;stroke-miterlimit:4;stroke-dasharray:none;stroke-opacity:1;paint-order:stroke markers fill;filter:url(#filter5758)"
         id="led"
         cx="33.866669"
         cy="21.190777"
         r="1.5119048" />
      <text
         xml:space="preserve"
         style="font-style:normal;font-weight:normal;font-size:10.58333302px;line-height:1.25;font-family:sans-serif;letter-spacing:0px;word-spacing:0px;fill:#000000;fill-opacity:1;stroke:none;stroke-width:0.26458332"
         x="24.828949"
         y="37.459209"
         id="text5785"><tspan
           sodipodi:role="line"
           id="tspan5783"
           x="24.828949"
           y="37.459209"
           style="font-style:normal;font-variant:normal;font-weight:300;font-stretch:normal;font-size:1.41111112px;font-family:Ubuntu;-inkscape-font-specification:'Ubuntu Light';stroke-width:0.26458332">172</tspan></text>
      <text
         xml:space="preserve"
         style="font-style:normal;font-weight:normal;font-size:10.58333302px;line-height:1.25;font-family:sans-serif;letter-spacing:0px;word-spacing:0px;fill:#000000;fill-opacity:1;stroke:none;stroke-width:0.26458332"
         x="44.422684"
         y="37.438042"
         id="text5785-5"><tspan
           sodipodi:role="line"
           id="tspan5783-6"
           x="44.422684"
           y="37.438042"
           style="font-style:normal;font-variant:normal;font-weight:300;font-stretch:normal;font-size:1.41111112px;font-family:Ubuntu;-inkscape-font-specification:'Ubuntu Light';stroke-width:0.26458332">15</tspan></text>
      <text
         xml:space="preserve"
         style="font-style:normal;font-weight:normal;font-size:10.58333302px;line-height:1.25;font-family:sans-serif;letter-spacing:0px;word-spacing:0px;fill:#000000;fill-opacity:1;stroke:none;stroke-width:0.26458332"
         x="62.427635"
         y="37.438042"
         id="text5785-9"><tspan
           sodipodi:role="line"
           x="62.427635"
           y="37.438042"
           style="font-style:normal;font-variant:normal;font-weight:300;font-stretch:normal;font-size:1.41111112px;font-family:Ubuntu;-inkscape-font-specification:'Ubuntu Light';stroke-width:0.26458332"
           id="tspan5813">155</tspan></text>
    </g>
    <g
       transform="matrix(0.18880989,0,0,-0.18880989,-5.3840268,149.39621)"
       inkscape:label="logo_MLAB"
       id="g10">
      <g
         transform="translate(118.5181,745.9849)"
         id="g12"
         style="fill:#ebe5e5;fill-opacity:1;stroke:none">
        <path
           inkscape:connector-curvature="0"
           id="path14"
           style="fill:#ebe5e5;fill-opacity:1;fill-rule:nonzero;stroke:none"
           d="m 0,0 0.101,-21.472 21.466,0.1 L 21.466,0.1 Z m -17.976,17.806 39.641,0.185 17.692,-17.527 0.186,-39.642 -57.251,-0.268 z" />
      </g>
      <g
         transform="translate(118.5181,745.9849)"
         id="g16">
        <path
           inkscape:connector-curvature="0"
           id="path18"
           style="fill:#ebe7e8;fill-opacity:1;stroke:none;stroke-width:0.56699997;stroke-linecap:butt;stroke-linejoin:miter;stroke-miterlimit:22.9260006;stroke-dasharray:none;stroke-opacity:1"
           d="m 0,0 0.101,-21.472 21.466,0.1 L 21.466,0.1 Z m -17.976,17.806 39.641,0.185 17.692,-17.527 0.186,-39.642 -57.251,-0.268 z" />
      </g>
      <g
         id="g20"
         style="fill:#ebe5e5;fill-opacity:1">
        <g
           clip-path="url(#clipPath24)"
           id="g22"
           style="fill:#ebe5e5;fill-opacity:1">
          <g
             transform="translate(185.8281,726.7344)"
             id="g28"
             style="fill:#ebe5e5;fill-opacity:1">
            <path
               inkscape:connector-curvature="0"
               id="path30"
               style="fill:#ebe5e5;fill-opacity:1;fill-rule:nonzero;stroke:none"
               d="m 0,0 -0.046,9.927 c -0.008,1.677 -0.166,2.867 -0.49,3.572 -0.318,0.706 -0.978,1.053 -1.975,1.049 -0.826,-0.004 -1.494,-0.231 -2.003,-0.678 -0.512,-0.458 -0.895,-1.039 -1.158,-1.74 l 0.056,-12.156 -4.742,-0.022 -0.086,18.245 3.682,0.017 0.561,-2.402 0.147,0.001 c 0.556,0.777 1.265,1.465 2.124,2.054 0.859,0.578 1.971,0.881 3.334,0.887 1.164,0.006 2.122,-0.226 2.867,-0.693 0.745,-0.472 1.322,-1.265 1.745,-2.385 0.555,0.951 1.268,1.705 2.143,2.263 0.869,0.564 1.928,0.856 3.172,0.862 1.021,0.005 1.892,-0.111 2.609,-0.351 0.719,-0.239 1.3,-0.66 1.756,-1.254 0.452,-0.592 0.789,-1.391 1.015,-2.384 0.227,-0.994 0.339,-2.262 0.346,-3.792 L 15.108,0.071 10.364,0.049 10.316,10.3 c -0.007,1.44 -0.165,2.516 -0.47,3.233 -0.308,0.713 -0.987,1.068 -2.03,1.063 C 6.965,14.592 6.289,14.365 5.793,13.895 5.297,13.43 4.93,12.798 4.688,11.991 L 4.745,0.022 Z" />
          </g>
          <g
             transform="translate(208.811,735.9653)"
             id="g32"
             style="fill:#ebe5e5;fill-opacity:1">
            <path
               inkscape:connector-curvature="0"
               id="path34"
               style="fill:#ebe5e5;fill-opacity:1;fill-rule:nonzero;stroke:none"
               d="m 0,0 c 0.004,-0.803 0.083,-1.545 0.229,-2.221 0.148,-0.684 0.37,-1.28 0.667,-1.784 0.294,-0.51 0.678,-0.905 1.153,-1.183 0.479,-0.277 1.038,-0.416 1.7,-0.413 1.241,0.006 2.159,0.462 2.765,1.359 0.6,0.909 0.903,2.329 0.893,4.277 C 7.399,1.718 7.115,3.071 6.546,4.096 5.981,5.134 5.036,5.643 3.696,5.637 2.526,5.631 1.619,5.19 0.967,4.314 0.313,3.431 -0.009,1.993 0,0 m -4.892,-0.023 c -0.014,3.092 0.73,5.47 2.235,7.145 C -1.16,8.797 0.952,9.638 3.677,9.651 5.137,9.658 6.402,9.436 7.474,8.975 8.549,8.517 9.438,7.873 10.148,7.034 10.854,6.199 11.39,5.189 11.749,3.996 12.108,2.803 12.289,1.494 12.296,0.058 12.31,-3.029 11.574,-5.41 10.086,-7.083 8.594,-8.76 6.491,-9.599 3.767,-9.611 c -1.461,-0.007 -2.726,0.218 -3.801,0.676 -1.07,0.453 -1.968,1.1 -2.689,1.935 -0.721,0.841 -1.26,1.851 -1.622,3.042 -0.355,1.19 -0.54,2.501 -0.547,3.935" />
          </g>
          <g
             transform="translate(231.8574,730.4546)"
             id="g36"
             style="fill:#ebe5e5;fill-opacity:1">
            <path
               inkscape:connector-curvature="0"
               id="path38"
               style="fill:#ebe5e5;fill-opacity:1;fill-rule:nonzero;stroke:none"
               d="m 0,0 c 0.928,0.004 1.654,0.234 2.189,0.686 0.53,0.447 0.905,1.103 1.12,1.953 l -0.037,7.74 C 2.931,10.641 2.554,10.843 2.141,10.973 1.729,11.111 1.189,11.173 0.533,11.169 -0.805,11.163 -1.804,10.71 -2.471,9.802 -3.136,8.902 -3.461,7.354 -3.451,5.166 -3.444,3.604 -3.166,2.359 -2.612,1.416 -2.064,0.468 -1.192,-0.006 0,0 M 8.047,2.961 C 8.052,1.934 8.072,0.917 8.102,-0.11 8.132,-1.135 8.244,-2.261 8.448,-3.5 L 5.051,-3.517 4.385,-1.152 4.243,-1.153 C 3.755,-2.002 3.059,-2.692 2.151,-3.223 1.238,-3.743 0.167,-4.01 -1.074,-4.016 c -2.288,-0.01 -4.067,0.732 -5.338,2.238 -1.273,1.503 -1.917,3.854 -1.931,7.07 -0.015,3.112 0.681,5.534 2.08,7.264 1.406,1.734 3.467,2.61 6.192,2.623 0.753,0.004 1.379,-0.04 1.86,-0.119 0.488,-0.087 0.975,-0.219 1.463,-0.415 l -0.034,7.407 4.74,0.022 z" />
          </g>
          <g
             transform="translate(248.5747,745.2739)"
             id="g40"
             style="fill:#ebe5e5;fill-opacity:1">
            <path
               inkscape:connector-curvature="0"
               id="path42"
               style="fill:#ebe5e5;fill-opacity:1;fill-rule:nonzero;stroke:none"
               d="m 0,0 0.048,-10.358 c 0.007,-1.49 0.186,-2.553 0.545,-3.216 0.351,-0.65 1.044,-0.977 2.063,-0.972 0.901,0.004 1.647,0.277 2.242,0.814 0.59,0.537 1.034,1.195 1.326,1.974 l -0.055,11.787 4.739,0.022 0.059,-12.697 c 0.005,-0.997 0.06,-1.978 0.156,-2.941 0.106,-0.958 0.255,-1.828 0.453,-2.604 l -3.573,-0.017 -0.854,2.697 -0.145,-0.001 c -0.554,-0.926 -1.33,-1.695 -2.326,-2.305 -0.996,-0.615 -2.17,-0.923 -3.532,-0.929 -0.925,-0.004 -1.753,0.111 -2.483,0.349 -0.731,0.244 -1.343,0.637 -1.831,1.198 -0.492,0.548 -0.864,1.31 -1.123,2.254 -0.26,0.945 -0.393,2.139 -0.399,3.578 l -0.054,11.345 z" />
          </g>
          <g
             transform="translate(278.4224,730.7788)"
             id="g44"
             style="fill:#ebe5e5;fill-opacity:1">
            <path
               inkscape:connector-curvature="0"
               id="path46"
               style="fill:#ebe5e5;fill-opacity:1;fill-rule:nonzero;stroke:none"
               d="M 0,0 C 0.945,0.004 1.697,0.222 2.26,0.654 2.814,1.076 3.227,1.539 3.494,2.025 L 3.483,4.397 C 2.728,4.47 2.003,4.477 1.311,4.425 0.614,4.374 0.003,4.261 -0.53,4.086 -1.064,3.913 -1.492,3.67 -1.806,3.353 -2.12,3.036 -2.275,2.629 -2.273,2.141 -2.27,1.464 -2.069,0.931 -1.661,0.562 -1.262,0.182 -0.707,-0.003 0,0 m -6.085,13.543 c 0.972,0.448 2.122,0.794 3.459,1.06 1.335,0.265 2.739,0.399 4.198,0.406 C 2.833,15.015 3.894,14.864 4.75,14.571 5.603,14.262 6.276,13.836 6.777,13.279 7.278,12.727 7.635,12.052 7.844,11.28 8.059,10.495 8.165,9.624 8.169,8.653 8.174,7.583 8.142,6.504 8.078,5.428 8.004,4.342 7.968,3.277 7.963,2.234 7.953,1.187 7.993,0.169 8.063,-0.814 8.145,-1.803 8.327,-2.733 8.626,-3.606 L 4.759,-3.624 3.981,-1.108 3.798,-1.109 C 3.314,-1.869 2.646,-2.517 1.784,-3.066 0.925,-3.622 -0.19,-3.901 -1.554,-3.908 c -0.851,-0.004 -1.614,0.122 -2.3,0.37 -0.682,0.26 -1.264,0.618 -1.753,1.091 -0.489,0.466 -0.871,1.028 -1.143,1.673 -0.267,0.64 -0.408,1.363 -0.412,2.165 -0.005,1.124 0.24,2.065 0.74,2.83 0.491,0.773 1.209,1.394 2.14,1.876 0.938,0.475 2.053,0.809 3.353,1.001 1.299,0.181 2.751,0.249 4.363,0.182 0.161,1.366 0.06,2.343 -0.309,2.935 -0.369,0.594 -1.184,0.89 -2.448,0.884 -0.953,-0.004 -1.954,-0.105 -3.013,-0.306 -1.052,-0.196 -1.921,-0.459 -2.601,-0.778 z" />
          </g>
          <g
             transform="translate(300.6328,741.063)"
             id="g48"
             style="fill:#ebe5e5;fill-opacity:1">
            <path
               inkscape:connector-curvature="0"
               id="path50"
               style="fill:#ebe5e5;fill-opacity:1;fill-rule:nonzero;stroke:none"
               d="m 0,0 c -0.754,0.263 -1.439,0.393 -2.047,0.39 -0.849,-0.004 -1.565,-0.231 -2.13,-0.678 -0.57,-0.458 -0.951,-1.032 -1.144,-1.74 l 0.055,-11.787 -4.744,-0.023 -0.086,18.246 3.687,0.017 0.558,-2.403 0.145,0.001 c 0.413,0.897 0.966,1.596 1.674,2.078 0.701,0.497 1.527,0.747 2.475,0.752 0.631,0.002 1.349,-0.126 2.156,-0.395 z" />
          </g>
          <g
             transform="translate(329.5273,731.0181)"
             id="g52"
             style="fill:#ebe5e5;fill-opacity:1">
            <path
               inkscape:connector-curvature="0"
               id="path54"
               style="fill:#ebe5e5;fill-opacity:1;fill-rule:nonzero;stroke:none"
               d="M 0,0 C 0.951,0.005 1.703,0.222 2.263,0.654 2.818,1.076 3.232,1.539 3.495,2.025 L 3.484,4.397 C 2.728,4.47 2.006,4.477 1.313,4.425 0.618,4.374 0.004,4.261 -0.527,4.086 -1.061,3.913 -1.486,3.67 -1.803,3.353 -2.113,3.036 -2.27,2.629 -2.268,2.141 -2.265,1.464 -2.063,0.931 -1.66,0.562 -1.257,0.182 -0.707,-0.003 0,0 m -6.079,13.543 c 0.97,0.448 2.117,0.794 3.458,1.06 1.336,0.265 2.736,0.399 4.193,0.406 1.266,0.006 2.325,-0.145 3.181,-0.438 0.851,-0.308 1.524,-0.735 2.03,-1.292 C 7.281,12.727 7.639,12.052 7.848,11.28 8.063,10.495 8.168,9.624 8.172,8.653 8.178,7.583 8.145,6.504 8.08,5.428 8.01,4.342 7.971,3.277 7.966,2.234 7.953,1.187 7.994,0.169 8.069,-0.814 8.148,-1.803 8.333,-2.733 8.631,-3.606 L 4.762,-3.624 3.985,-1.108 3.802,-1.109 C 3.319,-1.869 2.646,-2.517 1.789,-3.065 0.928,-3.622 -0.185,-3.901 -1.547,-3.908 c -0.854,-0.004 -1.618,0.122 -2.304,0.37 -0.676,0.26 -1.266,0.618 -1.753,1.091 -0.492,0.466 -0.871,1.028 -1.137,1.673 -0.271,0.64 -0.411,1.363 -0.415,2.165 -0.005,1.124 0.24,2.065 0.734,2.83 0.494,0.773 1.211,1.394 2.143,1.877 0.935,0.474 2.05,0.808 3.353,1 1.299,0.181 2.753,0.249 4.361,0.182 0.164,1.366 0.065,2.343 -0.31,2.935 -0.363,0.594 -1.184,0.89 -2.444,0.884 -0.951,-0.004 -1.952,-0.105 -3.009,-0.306 -1.057,-0.196 -1.926,-0.459 -2.606,-0.778 z" />
          </g>
          <g
             transform="translate(349.8008,742.1738)"
             id="g56"
             style="fill:#ebe5e5;fill-opacity:1">
            <path
               inkscape:connector-curvature="0"
               id="path58"
               style="fill:#ebe5e5;fill-opacity:1;fill-rule:nonzero;stroke:none"
               d="M 0,0 C -0.874,-0.004 -1.585,-0.231 -2.129,-0.684 -2.674,-1.14 -3.093,-1.79 -3.382,-2.643 l 0.037,-7.956 c 0.391,-0.191 0.814,-0.323 1.264,-0.395 0.45,-0.074 0.929,-0.102 1.442,-0.1 1.289,0.006 2.265,0.476 2.927,1.417 0.667,0.939 0.996,2.43 0.986,4.469 C 3.259,-1.722 2.164,0.01 0,0 m -8.187,10.832 4.742,0.022 0.041,-8.752 0.15,0.001 c 0.503,0.579 1.159,1.05 1.962,1.392 0.799,0.349 1.686,0.519 2.659,0.524 2.19,0.01 3.866,-0.731 5.028,-2.22 1.164,-1.49 1.751,-3.765 1.766,-6.831 0.015,-3.281 -0.782,-5.786 -2.389,-7.497 -1.613,-1.706 -3.83,-2.571 -6.652,-2.584 -1.556,-0.007 -2.975,0.113 -4.268,0.366 -1.29,0.246 -2.265,0.529 -2.922,0.846 z" />
          </g>
          <g
             transform="translate(365.2637,736.6978)"
             id="g60"
             style="fill:#ebe5e5;fill-opacity:1">
            <path
               inkscape:connector-curvature="0"
               id="path62"
               style="fill:#ebe5e5;fill-opacity:1;fill-rule:nonzero;stroke:none"
               d="m 0,0 c 0.004,-0.803 0.077,-1.545 0.226,-2.221 0.151,-0.684 0.373,-1.28 0.665,-1.784 0.294,-0.51 0.679,-0.905 1.157,-1.182 0.474,-0.278 1.042,-0.417 1.698,-0.414 1.24,0.006 2.163,0.462 2.77,1.36 0.596,0.908 0.894,2.328 0.885,4.276 C 7.394,1.718 7.109,3.071 6.542,4.096 5.979,5.134 5.03,5.643 3.693,5.637 2.529,5.631 1.615,5.19 0.968,4.314 0.306,3.431 -0.01,1.993 0,0 M -4.896,-0.023 C -4.91,3.069 -4.163,5.447 -2.66,7.122 -1.165,8.797 0.948,9.639 3.675,9.651 5.135,9.658 6.396,9.436 7.468,8.975 8.546,8.517 9.434,7.873 10.143,7.035 10.851,6.199 11.384,5.189 11.745,3.996 12.104,2.803 12.286,1.494 12.293,0.058 12.307,-3.029 11.568,-5.41 10.084,-7.083 8.597,-8.76 6.485,-9.599 3.765,-9.611 c -1.46,-0.007 -2.728,0.218 -3.797,0.676 -1.075,0.453 -1.969,1.1 -2.69,1.935 -0.726,0.841 -1.264,1.851 -1.62,3.042 -0.36,1.19 -0.547,2.501 -0.554,3.935" />
          </g>
          <g
             transform="translate(390.8936,741.4858)"
             id="g64"
             style="fill:#ebe5e5;fill-opacity:1">
            <path
               inkscape:connector-curvature="0"
               id="path66"
               style="fill:#ebe5e5;fill-opacity:1;fill-rule:nonzero;stroke:none"
               d="M 0,0 C -0.759,0.263 -1.444,0.393 -2.047,0.39 -2.901,0.386 -3.609,0.158 -4.182,-0.289 -4.756,-0.747 -5.139,-1.32 -5.325,-2.028 l 0.054,-11.788 -4.739,-0.022 -0.085,18.245 3.687,0.018 0.557,-2.403 0.14,0.001 c 0.411,0.896 0.97,1.596 1.676,2.078 0.698,0.496 1.52,0.747 2.473,0.751 0.631,0.003 1.349,-0.126 2.156,-0.394 z" />
          </g>
          <g
             transform="translate(399.5859,731.3462)"
             id="g68"
             style="fill:#ebe5e5;fill-opacity:1">
            <path
               inkscape:connector-curvature="0"
               id="path70"
               style="fill:#ebe5e5;fill-opacity:1;fill-rule:nonzero;stroke:none"
               d="m 0,0 c 0.94,0.004 1.692,0.222 2.258,0.654 0.555,0.422 0.97,0.885 1.23,1.371 L 3.478,4.397 C 2.724,4.469 1.997,4.476 1.307,4.425 0.61,4.374 0,4.261 -0.533,4.086 -1.066,3.913 -1.497,3.67 -1.808,3.353 -2.125,3.036 -2.278,2.628 -2.275,2.141 -2.272,1.464 -2.07,0.931 -1.666,0.562 -1.265,0.182 -0.709,-0.003 0,0 m -6.084,13.543 c 0.964,0.448 2.121,0.794 3.458,1.059 1.339,0.266 2.733,0.4 4.188,0.407 1.271,0.006 2.335,-0.145 3.187,-0.438 C 5.599,14.262 6.27,13.836 6.771,13.279 7.275,12.727 7.638,12.052 7.845,11.28 8.052,10.495 8.162,9.624 8.166,8.653 8.172,7.583 8.137,6.504 8.067,5.428 8.004,4.342 7.968,3.277 7.96,2.234 7.944,1.186 7.99,0.169 8.064,-0.814 8.143,-1.803 8.329,-2.733 8.626,-3.606 L 4.761,-3.624 3.977,-1.108 3.803,-1.109 C 3.312,-1.869 2.646,-2.518 1.781,-3.066 0.916,-3.622 -0.197,-3.902 -1.551,-3.908 c -0.859,-0.004 -1.626,0.122 -2.307,0.37 -0.68,0.26 -1.265,0.618 -1.752,1.091 -0.492,0.466 -0.871,1.028 -1.14,1.673 -0.272,0.64 -0.413,1.363 -0.417,2.165 -0.005,1.124 0.244,2.065 0.74,2.83 0.499,0.773 1.213,1.394 2.143,1.876 0.931,0.475 2.045,0.809 3.351,1 1.298,0.182 2.755,0.25 4.365,0.183 0.163,1.366 0.062,2.343 -0.312,2.935 -0.361,0.594 -1.183,0.89 -2.447,0.884 -0.949,-0.004 -1.955,-0.105 -3.01,-0.306 -1.054,-0.196 -1.928,-0.459 -2.607,-0.778 z" />
          </g>
          <g
             transform="translate(409.8018,746.0288)"
             id="g72"
             style="fill:#ebe5e5;fill-opacity:1">
            <path
               inkscape:connector-curvature="0"
               id="path74"
               style="fill:#ebe5e5;fill-opacity:1;fill-rule:nonzero;stroke:none"
               d="m 0,0 2.52,0.012 -0.017,3.432 4.734,1.37 0.022,-4.78 4.454,0.021 0.019,-4.014 -4.454,-0.021 0.033,-7.01 c 0.005,-1.261 0.14,-2.165 0.398,-2.714 0.263,-0.543 0.736,-0.815 1.446,-0.812 0.486,0.002 0.908,0.056 1.259,0.154 0.35,0.095 0.751,0.247 1.182,0.438 l 0.856,-3.642 c -0.655,-0.314 -1.418,-0.587 -2.289,-0.813 -0.88,-0.22 -1.767,-0.333 -2.667,-0.337 -1.675,-0.008 -2.918,0.416 -3.713,1.276 -0.789,0.857 -1.193,2.266 -1.202,4.241 L 2.538,-4.002 0.019,-4.015 Z" />
          </g>
          <g
             transform="translate(428.3105,736.9932)"
             id="g76"
             style="fill:#ebe5e5;fill-opacity:1">
            <path
               inkscape:connector-curvature="0"
               id="path78"
               style="fill:#ebe5e5;fill-opacity:1;fill-rule:nonzero;stroke:none"
               d="m 0,0 c 0.004,-0.803 0.079,-1.545 0.232,-2.221 0.146,-0.684 0.365,-1.28 0.667,-1.784 0.293,-0.51 0.681,-0.905 1.15,-1.183 0.478,-0.277 1.042,-0.416 1.705,-0.413 1.236,0.005 2.154,0.462 2.761,1.359 0.597,0.909 0.903,2.329 0.894,4.277 C 7.401,1.718 7.115,3.071 6.55,4.096 5.983,5.134 5.034,5.643 3.701,5.636 2.532,5.631 1.619,5.189 0.967,4.314 0.315,3.431 -0.009,1.993 0,0 m -4.887,-0.023 c -0.014,3.092 0.728,5.47 2.228,7.145 1.5,1.675 3.616,2.516 6.342,2.529 C 5.137,9.658 6.405,9.435 7.475,8.975 8.545,8.517 9.435,7.873 10.148,7.034 10.858,6.199 11.39,5.189 11.749,3.996 12.111,2.803 12.287,1.494 12.294,0.058 12.309,-3.029 11.574,-5.41 10.087,-7.083 8.6,-8.76 6.494,-9.599 3.772,-9.611 c -1.469,-0.007 -2.726,0.218 -3.806,0.676 -1.07,0.453 -1.968,1.1 -2.694,1.935 -0.715,0.84 -1.253,1.85 -1.619,3.042 -0.359,1.19 -0.533,2.501 -0.54,3.935" />
          </g>
          <g
             transform="translate(453.9385,741.7808)"
             id="g80"
             style="fill:#ebe5e5;fill-opacity:1">
            <path
               inkscape:connector-curvature="0"
               id="path82"
               style="fill:#ebe5e5;fill-opacity:1;fill-rule:nonzero;stroke:none"
               d="M 0,0 C -0.759,0.263 -1.435,0.393 -2.045,0.39 -2.897,0.386 -3.605,0.159 -4.173,-0.288 -4.745,-0.746 -5.129,-1.32 -5.314,-2.028 l 0.055,-11.787 -4.745,-0.023 -0.086,18.246 3.682,0.017 0.566,-2.402 h 0.143 c 0.407,0.897 0.966,1.596 1.669,2.078 0.7,0.497 1.523,0.747 2.471,0.752 0.636,0.002 1.354,-0.126 2.162,-0.395 z" />
          </g>
          <g
             transform="translate(463.3428,736.0259)"
             id="g84"
             style="fill:#ebe5e5;fill-opacity:1">
            <path
               inkscape:connector-curvature="0"
               id="path86"
               style="fill:#ebe5e5;fill-opacity:1;fill-rule:nonzero;stroke:none"
               d="M 0,0 0.67,-2.842 0.894,-2.841 1.348,0.044 4.073,10.273 8.958,10.296 3.492,-6.186 C 3.041,-7.55 2.6,-8.801 2.178,-9.932 c -0.423,-1.133 -0.881,-2.112 -1.393,-2.943 -0.502,-0.831 -1.063,-1.469 -1.682,-1.925 -0.628,-0.448 -1.36,-0.678 -2.209,-0.681 -1.266,-0.007 -2.274,0.192 -3.029,0.606 l 0.858,3.794 c 0.361,-0.142 0.727,-0.217 1.093,-0.216 0.563,0.003 1.103,0.248 1.622,0.72 0.519,0.481 0.915,1.342 1.17,2.578 l -7.708,18.21 5.696,0.027 z" />
          </g>
          <g
             transform="translate(267.8574,726.5596)"
             id="g88"
             style="fill:#ebe5e5;fill-opacity:1">
            <path
               inkscape:connector-curvature="0"
               id="path90"
               style="fill:#ebe5e5;fill-opacity:1;fill-rule:nonzero;stroke:none"
               d="m 0,0 -4.681,-0.022 -0.122,26.051 4.681,0.022 z" />
          </g>
          <g
             transform="translate(319.6055,726.8018)"
             id="g92"
             style="fill:#ebe5e5;fill-opacity:1">
            <path
               inkscape:connector-curvature="0"
               id="path94"
               style="fill:#ebe5e5;fill-opacity:1;fill-rule:nonzero;stroke:none"
               d="m 0,0 -4.681,-0.022 -0.122,26.051 4.682,0.022 z" />
          </g>
        </g>
      </g>
    </g>
    <text
       xml:space="preserve"
       style="font-style:normal;font-weight:normal;font-size:10.58333302px;line-height:1.25;font-family:sans-serif;letter-spacing:0px;word-spacing:0px;fill:#000000;fill-opacity:1;stroke:none;stroke-width:0.26458332"
       x="81.198059"
       y="37.438042"
       id="text5785-7"><tspan
         sodipodi:role="line"
         id="tspan5783-4"
         x="81.198059"
         y="37.438042"
         style="font-style:normal;font-variant:normal;font-weight:300;font-stretch:normal;font-size:1.41111112px;font-family:Ubuntu;-inkscape-font-specification:'Ubuntu Light';stroke-width:0.26458332">140</tspan></text>
    <text
       xml:space="preserve"
       style="font-style:normal;font-weight:normal;font-size:10.58333302px;line-height:1.25;font-family:sans-serif;letter-spacing:0px;word-spacing:0px;fill:#000000;fill-opacity:1;stroke:none;stroke-width:0.26458332"
       x="25.611343"
       y="60.591923"
       id="text5785-78"><tspan
         sodipodi:role="line"
         id="tspan5783-68"
         x="25.611343"
         y="60.591923"
         style="font-style:normal;font-variant:normal;font-weight:300;font-stretch:normal;font-size:1.41111112px;font-family:Ubuntu;-inkscape-font-specification:'Ubuntu Light';stroke-width:0.26458332">69</tspan></text>
    <text
       xml:space="preserve"
       style="font-style:normal;font-weight:normal;font-size:10.58333302px;line-height:1.25;font-family:sans-serif;letter-spacing:0px;word-spacing:0px;fill:#000000;fill-opacity:1;stroke:none;stroke-width:0.26458332"
       x="44.40152"
       y="60.591923"
       id="text5785-5-8"><tspan
         sodipodi:role="line"
         id="tspan5783-6-4"
         x="44.40152"
         y="60.591923"
         style="font-style:normal;font-variant:normal;font-weight:300;font-stretch:normal;font-size:1.41111112px;font-family:Ubuntu;-inkscape-font-specification:'Ubuntu Light';stroke-width:0.26458332">98</tspan></text>
    <text
       xml:space="preserve"
       style="font-style:normal;font-weight:normal;font-size:10.58333302px;line-height:1.25;font-family:sans-serif;letter-spacing:0px;word-spacing:0px;fill:#000000;fill-opacity:1;stroke:none;stroke-width:0.26458332"
       x="63.224144"
       y="60.591923"
       id="text5785-9-3"><tspan
         sodipodi:role="line"
         x="63.224144"
         y="60.591923"
         style="font-style:normal;font-variant:normal;font-weight:300;font-stretch:normal;font-size:1.41111112px;font-family:Ubuntu;-inkscape-font-specification:'Ubuntu Light';stroke-width:0.26458332"
         id="tspan5813-1">55</tspan></text>
    <text
       xml:space="preserve"
       style="font-style:normal;font-weight:normal;font-size:10.58333302px;line-height:1.25;font-family:sans-serif;letter-spacing:0px;word-spacing:0px;fill:#000000;fill-opacity:1;stroke:none;stroke-width:0.26458332"
       x="81.981865"
       y="60.613091"
       id="text5785-7-4"><tspan
         sodipodi:role="line"
         id="tspan5783-4-9"
         x="81.981865"
         y="60.613091"
         style="font-style:normal;font-variant:normal;font-weight:300;font-stretch:normal;font-size:1.41111112px;font-family:Ubuntu;-inkscape-font-specification:'Ubuntu Light';stroke-width:0.26458332">14</tspan></text>
    <text
       xml:space="preserve"
       style="font-style:normal;font-weight:normal;font-size:10.58333302px;line-height:1.25;font-family:sans-serif;letter-spacing:0px;word-spacing:0px;fill:#000000;fill-opacity:1;stroke:none;stroke-width:0.26458332"
       x="25.804667"
       y="79.159683"
       id="text5785-4"
       inkscape:transform-center-x="35.485289"
       inkscape:transform-center-y="-0.79122941"><tspan
         sodipodi:role="line"
         id="tspan5783-9"
         x="25.804667"
         y="79.159683"
         style="font-style:normal;font-variant:normal;font-weight:300;font-stretch:normal;font-size:1.41111112px;font-family:Ubuntu;-inkscape-font-specification:'Ubuntu Light';stroke-width:0.26458332">71</tspan></text>
    <text
       xml:space="preserve"
       style="font-style:normal;font-weight:normal;font-size:10.58333302px;line-height:1.25;font-family:sans-serif;letter-spacing:0px;word-spacing:0px;fill:#000000;fill-opacity:1;stroke:none;stroke-width:0.26458332"
       x="44.426914"
       y="79.009041"
       id="text5785-5-5"
       inkscape:transform-center-x="16.689709"
       inkscape:transform-center-y="-0.79123432"><tspan
         sodipodi:role="line"
         id="tspan5783-6-0"
         x="44.426914"
         y="79.009041"
         style="font-style:normal;font-variant:normal;font-weight:300;font-stretch:normal;font-size:1.41111112px;font-family:Ubuntu;-inkscape-font-specification:'Ubuntu Light';stroke-width:0.26458332">72</tspan></text>
    <text
       xml:space="preserve"
       style="font-style:normal;font-weight:normal;font-size:10.58333302px;line-height:1.25;font-family:sans-serif;letter-spacing:0px;word-spacing:0px;fill:#000000;fill-opacity:1;stroke:none;stroke-width:0.26458332"
       x="63.225555"
       y="78.987877"
       id="text5785-9-4"
       inkscape:transform-center-x="-2.105875"
       inkscape:transform-center-y="-0.79123432"><tspan
         sodipodi:role="line"
         x="63.225555"
         y="78.987877"
         style="font-style:normal;font-variant:normal;font-weight:300;font-stretch:normal;font-size:1.41111112px;font-family:Ubuntu;-inkscape-font-specification:'Ubuntu Light';stroke-width:0.26458332"
         id="tspan5813-8">73</tspan></text>
    <text
       xml:space="preserve"
       style="font-style:normal;font-weight:normal;font-size:10.58333302px;line-height:1.25;font-family:sans-serif;letter-spacing:0px;word-spacing:0px;fill:#000000;fill-opacity:1;stroke:none;stroke-width:0.26458332"
       x="81.981865"
       y="79.009041"
       id="text5785-7-7"
       inkscape:transform-center-x="-20.901461"
       inkscape:transform-center-y="-0.80181765"><tspan
         sodipodi:role="line"
         id="tspan5783-4-1"
         x="81.981865"
         y="79.009041"
         style="font-style:normal;font-variant:normal;font-weight:300;font-stretch:normal;font-size:1.41111112px;font-family:Ubuntu;-inkscape-font-specification:'Ubuntu Light';stroke-width:0.26458332">74</tspan></text>
    <text
       xml:space="preserve"
       style="font-style:normal;font-weight:normal;font-size:10.58333302px;line-height:1.25;font-family:sans-serif;letter-spacing:0px;word-spacing:0px;fill:#000000;fill-opacity:1;stroke:none;stroke-width:0.26458332"
       x="25.804667"
       y="97.727448"
       id="text5785-4-7"
       inkscape:transform-center-x="35.485289"
       inkscape:transform-center-y="-0.79122941"><tspan
         sodipodi:role="line"
         id="tspan5783-9-2"
         x="25.804667"
         y="97.727448"
         style="font-style:normal;font-variant:normal;font-weight:300;font-stretch:normal;font-size:1.41111112px;font-family:Ubuntu;-inkscape-font-specification:'Ubuntu Light';stroke-width:0.26458332">75</tspan></text>
    <text
       xml:space="preserve"
       style="font-style:normal;font-weight:normal;font-size:10.58333302px;line-height:1.25;font-family:sans-serif;letter-spacing:0px;word-spacing:0px;fill:#000000;fill-opacity:1;stroke:none;stroke-width:0.26458332"
       x="44.526638"
       y="97.517448"
       id="text5785-5-5-7"
       inkscape:transform-center-x="16.689709"
       inkscape:transform-center-y="-0.79123432"><tspan
         sodipodi:role="line"
         id="tspan5783-6-0-2"
         x="44.526638"
         y="97.517448"
         style="font-style:normal;font-variant:normal;font-weight:300;font-stretch:normal;font-size:1.41111112px;font-family:Ubuntu;-inkscape-font-specification:'Ubuntu Light';stroke-width:0.26458332">76</tspan></text>
    <text
       xml:space="preserve"
       style="font-style:normal;font-weight:normal;font-size:10.58333302px;line-height:1.25;font-family:sans-serif;letter-spacing:0px;word-spacing:0px;fill:#000000;fill-opacity:1;stroke:none;stroke-width:0.26458332"
       x="63.2733"
       y="97.496284"
       id="text5785-9-4-2"
       inkscape:transform-center-x="-2.105875"
       inkscape:transform-center-y="-0.79123432"><tspan
         sodipodi:role="line"
         x="63.2733"
         y="97.496284"
         style="font-style:normal;font-variant:normal;font-weight:300;font-stretch:normal;font-size:1.41111112px;font-family:Ubuntu;-inkscape-font-specification:'Ubuntu Light';stroke-width:0.26458332"
         id="tspan5813-8-6">77</tspan></text>
    <text
       xml:space="preserve"
       style="font-style:normal;font-weight:normal;font-size:10.58333302px;line-height:1.25;font-family:sans-serif;letter-spacing:0px;word-spacing:0px;fill:#000000;fill-opacity:1;stroke:none;stroke-width:0.26458332"
       x="82.00444"
       y="97.517448"
       id="text5785-7-7-1"
       inkscape:transform-center-x="-20.901461"
       inkscape:transform-center-y="-0.80181765"><tspan
         sodipodi:role="line"
         id="tspan5783-4-1-0"
         x="82.00444"
         y="97.517448"
         style="font-style:normal;font-variant:normal;font-weight:300;font-stretch:normal;font-size:1.41111112px;font-family:Ubuntu;-inkscape-font-specification:'Ubuntu Light';stroke-width:0.26458332">78</tspan></text>
    <text
       xml:space="preserve"
       style="font-style:normal;font-weight:normal;font-size:10.58333302px;line-height:1.25;font-family:sans-serif;letter-spacing:0px;word-spacing:0px;fill:#000000;fill-opacity:1;stroke:none;stroke-width:0.26458332"
       x="25.804667"
       y="116.29521"
       id="text5785-4-6"
       inkscape:transform-center-x="35.485289"
       inkscape:transform-center-y="-0.79122941"><tspan
         sodipodi:role="line"
         id="tspan5783-9-1"
         x="25.804667"
         y="116.29521"
         style="font-style:normal;font-variant:normal;font-weight:300;font-stretch:normal;font-size:1.41111112px;font-family:Ubuntu;-inkscape-font-specification:'Ubuntu Light';stroke-width:0.26458332">79</tspan></text>
    <text
       xml:space="preserve"
       style="font-style:normal;font-weight:normal;font-size:10.58333302px;line-height:1.25;font-family:sans-serif;letter-spacing:0px;word-spacing:0px;fill:#000000;fill-opacity:1;stroke:none;stroke-width:0.26458332"
       x="44.267269"
       y="116.02586"
       id="text5785-5-5-5"
       inkscape:transform-center-x="16.689709"
       inkscape:transform-center-y="-0.79123432"><tspan
         sodipodi:role="line"
         id="tspan5783-6-0-9"
         x="44.267269"
         y="116.02586"
         style="font-style:normal;font-variant:normal;font-weight:300;font-stretch:normal;font-size:1.41111112px;font-family:Ubuntu;-inkscape-font-specification:'Ubuntu Light';stroke-width:0.26458332">80</tspan></text>
    <text
       xml:space="preserve"
       style="font-style:normal;font-weight:normal;font-size:10.58333302px;line-height:1.25;font-family:sans-serif;letter-spacing:0px;word-spacing:0px;fill:#000000;fill-opacity:1;stroke:none;stroke-width:0.26458332"
       x="63.065914"
       y="116.00469"
       id="text5785-9-4-4"
       inkscape:transform-center-x="-2.105875"
       inkscape:transform-center-y="-0.79123432"><tspan
         sodipodi:role="line"
         x="63.065914"
         y="116.00469"
         style="font-style:normal;font-variant:normal;font-weight:300;font-stretch:normal;font-size:1.41111112px;font-family:Ubuntu;-inkscape-font-specification:'Ubuntu Light';stroke-width:0.26458332"
         id="tspan5813-8-9">81</tspan></text>
    <text
       xml:space="preserve"
       style="font-style:normal;font-weight:normal;font-size:10.58333302px;line-height:1.25;font-family:sans-serif;letter-spacing:0px;word-spacing:0px;fill:#000000;fill-opacity:1;stroke:none;stroke-width:0.26458332"
       x="25.818777"
       y="134.86298"
       id="text5785-4-1"
       inkscape:transform-center-x="35.485289"
       inkscape:transform-center-y="-0.79122941"><tspan
         sodipodi:role="line"
         id="tspan5783-9-7"
         x="25.818777"
         y="134.86298"
         style="font-style:normal;font-variant:normal;font-weight:300;font-stretch:normal;font-size:1.41111112px;font-family:Ubuntu;-inkscape-font-specification:'Ubuntu Light';stroke-width:0.26458332">82</tspan></text>
    <text
       xml:space="preserve"
       style="font-style:normal;font-weight:normal;font-size:10.58333302px;line-height:1.25;font-family:sans-serif;letter-spacing:0px;word-spacing:0px;fill:#000000;fill-opacity:1;stroke:none;stroke-width:0.26458332"
       x="44.735016"
       y="134.88414"
       id="text5785-5-5-71"
       inkscape:transform-center-x="16.689709"
       inkscape:transform-center-y="-0.79123432"><tspan
         sodipodi:role="line"
         id="tspan5783-6-0-1"
         x="44.735016"
         y="134.88414"
         style="font-style:normal;font-variant:normal;font-weight:300;font-stretch:normal;font-size:1.41111112px;font-family:Ubuntu;-inkscape-font-specification:'Ubuntu Light';stroke-width:0.26458332">11</tspan></text>
    <text
       xml:space="preserve"
       style="font-style:normal;font-weight:normal;font-size:10.58333302px;line-height:1.25;font-family:sans-serif;letter-spacing:0px;word-spacing:0px;fill:#000000;fill-opacity:1;stroke:none;stroke-width:0.26458332"
       x="63.065914"
       y="134.86298"
       id="text5785-9-4-5"
       inkscape:transform-center-x="-2.105875"
       inkscape:transform-center-y="-0.79123432"><tspan
         sodipodi:role="line"
         x="63.065914"
         y="134.86298"
         style="font-style:normal;font-variant:normal;font-weight:300;font-stretch:normal;font-size:1.41111112px;font-family:Ubuntu;-inkscape-font-specification:'Ubuntu Light';stroke-width:0.26458332"
         id="tspan5813-8-97">83</tspan></text>
    <text
       xml:space="preserve"
       style="font-style:normal;font-weight:normal;font-size:10.58333302px;line-height:1.25;font-family:sans-serif;letter-spacing:0px;word-spacing:0px;fill:#000000;fill-opacity:1;stroke:none;stroke-width:0.26458332"
       x="81.995979"
       y="134.86298"
       id="text5785-7-7-7"
       inkscape:transform-center-x="-20.901461"
       inkscape:transform-center-y="-0.80181765"><tspan
         sodipodi:role="line"
         id="tspan5783-4-1-6"
         x="81.995979"
         y="134.86298"
         style="font-style:normal;font-variant:normal;font-weight:300;font-stretch:normal;font-size:1.41111112px;font-family:Ubuntu;-inkscape-font-specification:'Ubuntu Light';stroke-width:0.26458332">96</tspan></text>
  </g>
  <metadata
     id="metadata5762">
    <rdf:RDF>
      <cc:Work
         rdf:about="">
        <dc:title></dc:title>
      </cc:Work>
    </rdf:RDF>
  </metadata>
</svg>
